PathFileType	4	(X/Y/Z)	Kaydara	
DataRate	CameraRate	NumFrames	NumMarkers	Units	OrigDataRate	OrigDataStartFrame	OrigNumFrames	
120.00	120.00	4	72	mm	120.00	229	261	
Frame#	Time	Hips			RightUpLeg			RightLeg			RightFoot			RightFoot_End			LeftUpLeg			LeftLeg			LeftFoot			LeftFoot_End			Spine			Spine1			Spine2			Spine3			Neck			Head			Head_End			RightShoulder			RightArm			RightForeArm			RightHand			RightHandThumb1			RightHandThumb2			RightHandThumb3			RightHandThumb3_End			RightInHandIndex			RightHandIndex1			RightHandIndex2			RightHandIndex3			RightHandIndex3_End			RightInHandMiddle			RightHandMiddle1			RightHandMiddle2			RightHandMiddle3			RightHandMiddle3_End			RightInHandRing			RightHandRing1			RightHandRing2			RightHandRing3			RightHandRing3_End			RightInHandPinky			RightHandPinky1			RightHandPinky2			RightHandPinky3			RightHandPinky3_End			LeftShoulder			LeftArm			LeftForeArm			LeftHand			LeftHandThumb1			LeftHandThumb2			LeftHandThumb3			LeftHandThumb3_End			LeftInHandIndex			LeftHandIndex1			LeftHandIndex2			LeftHandIndex3			LeftHandIndex3_End			LeftInHandMiddle			LeftHandMiddle1			LeftHandMiddle2			LeftHandMiddle3			LeftHandMiddle3_End			LeftInHandRing			LeftHandRing1			LeftHandRing2			LeftHandRing3			LeftHandRing3_End			LeftInHandPinky			LeftHandPinky1			LeftHandPinky2			LeftHandPinky3			LeftHandPinky3_End			
		X1	Y1	Z1	X2	Y2	Z2	X3	Y3	Z3	X4	Y4	Z4	X5	Y5	Z5	X6	Y6	Z6	X7	Y7	Z7	X8	Y8	Z8	X9	Y9	Z9	X10	Y10	Z10	X11	Y11	Z11	X12	Y12	Z12	X13	Y13	Z13	X14	Y14	Z14	X15	Y15	Z15	X16	Y16	Z16	X17	Y17	Z17	X18	Y18	Z18	X19	Y19	Z19	X20	Y20	Z20	X21	Y21	Z21	X22	Y22	Z22	X23	Y23	Z23	X24	Y24	Z24	X25	Y25	Z25	X26	Y26	Z26	X27	Y27	Z27	X28	Y28	Z28	X29	Y29	Z29	X30	Y30	Z30	X31	Y31	Z31	X32	Y32	Z32	X33	Y33	Z33	X34	Y34	Z34	X35	Y35	Z35	X36	Y36	Z36	X37	Y37	Z37	X38	Y38	Z38	X39	Y39	Z39	X40	Y40	Z40	X41	Y41	Z41	X42	Y42	Z42	X43	Y43	Z43	X44	Y44	Z44	X45	Y45	Z45	X46	Y46	Z46	X47	Y47	Z47	X48	Y48	Z48	X49	Y49	Z49	X50	Y50	Z50	X51	Y51	Z51	X52	Y52	Z52	X53	Y53	Z53	X54	Y54	Z54	X55	Y55	Z55	X56	Y56	Z56	X57	Y57	Z57	X58	Y58	Z58	X59	Y59	Z59	X60	Y60	Z60	X61	Y61	Z61	X62	Y62	Z62	X63	Y63	Z63	X64	Y64	Z64	X65	Y65	Z65	X66	Y66	Z66	X67	Y67	Z67	X68	Y68	Z68	X69	Y69	Z69	X70	Y70	Z70	X71	Y71	Z71	X72	Y72	Z72	

229	1.9	3081.203	893.81699	129.612	3073.000761019203	848.2827779985985	70.28989878385521	3007.9772947670654	439.6704714630384	39.21777038575872	3123.3452271333445	122.87064713433003	-130.08960553182442	3068.072889980158	10.780670643686083	5.951380645934203	3100.179252762308	912.5870425158691	202.76614370171527	2988.328415252751	521.8168317004895	300.6119453858373	2882.225721633151	93.72358333508991	342.60983705837435	2739.8257820468657	14.472171341411233	244.50988600050786	3040.8921284762505	1017.3280452064106	70.44826222066378	2989.5537655229014	1085.8484940915805	24.881843252572477	2931.076687652586	1152.6318055836934	-23.150144181622526	2867.766025347984	1208.8306809411652	-69.77794633581355	2799.4614688141373	1269.3626358358727	-118.2869031003754	2735.6402257081672	1323.8499975866725	-159.5856629389247	2596.578854097546	1400.8319642690742	-160.31989257854977	2817.3813075129488	1232.432798094096	-113.98879188554066	2792.09349606523	1167.8912542872877	-131.48950341607923	2841.0914269559016	1077.548131644342	7.547891668744844	2772.0096396693507	987.615888334884	98.14690752089773	2771.6831181898738	996.8302075712985	100.49050917622543	2771.439707133968	995.2873197626909	110.53242203234649	2771.022585483614	991.270221467008	119.2653586689635	2770.4630231257656	985.4039949003438	128.03394306641522	2770.6621119578904	987.3412051769549	106.82060239496519	2768.132238783241	975.0793375113692	127.05561394109897	2766.9241525607613	965.4024213021572	141.78594614960198	2766.8743400833296	962.1069308726745	148.3125548791432	2767.30613019303	961.2144128324121	151.93977213026497	2770.102961748798	979.7101347838842	110.87897913811457	2767.33279966434	963.62295431305	132.81059228915993	2765.9496504198473	952.0949546381216	149.35498321965258	2765.858423960493	947.6542938846598	157.45494484527921	2766.3157440454593	946.4517777844331	161.53356910829189	2769.7647485253533	974.6216268034096	113.23866583823782	2766.9659137382323	955.7576688454199	134.9679303411664	2765.698497454267	944.7453230341456	149.83449681893518	2765.5776439640154	939.949754348965	157.88461422704276	2765.9920750919414	938.5763660409397	161.8318853758208	2769.5091417981826	969.191343664467	115.30268948332322	2766.7577241252334	948.5039655274257	136.54120578863677	2765.65856651665	938.263290539829	149.0474283793172	2765.529660147882	934.0773218684069	155.21024153629932	2765.8733238323402	932.4647415436189	158.87437173853982	2826.574391538471	1265.7868629911236	-89.25037673779237	2851.029356973378	1310.09310911698	-42.384252952759084	2872.595691865599	1142.3440379923381	41.041658145775294	2836.1954410089056	1018.841556145518	97.5527640610304	2829.655370960893	1029.683947554366	90.75272599617729	2825.2285979136423	1026.9731960293152	87.93673687546466	2822.730618400331	1022.0085208385354	88.24886695078519	2821.1484576149387	1015.2374736083431	90.45372249547434	2831.025691816315	1020.1311191515396	98.56142324587638	2825.8399826102423	1008.6004541664709	107.30500487209737	2822.9046645424705	998.0001117399014	111.87350806679295	2821.3754247997604	993.3969911701349	111.35132899617547	2820.309097813597	990.9273578596925	108.65107347253576	2832.8288162554104	1012.041316660313	104.36771933668716	2828.745952706736	996.4196078894907	116.03700709357973	2825.7985182223183	983.8192782258508	121.75802422889318	2824.076193824909	977.7699640380366	121.48115273426728	2822.969063122738	974.8267032371692	118.69824151387128	2834.2310085822287	1006.6238646610433	108.27874032181957	2831.777312684236	987.9319246665808	122.22541022107134	2829.476027994943	975.9179196552404	127.94526357504616	2827.9568786847412	969.5350955763863	128.0676603771599	2826.983267245484	966.5081079469493	125.6355826993488	2836.0292272876895	1000.6844730484786	112.28104955300223	2834.872054547643	979.8875825583932	127.65044398209865	2833.45765461577	968.739434518143	133.31380630161576	2832.5568063984174	963.3447351512408	133.92702913118737	2831.8136032873035	960.237991034361	132.0741360886845
230	1.908	3081.203	893.81699	129.612	3072.2807423451786	847.7772204678283	69.93656258640868	3008.0307757664823	439.0487734594384	38.943424303406324	3123.937974759774	122.96714263292027	-132.04144055068167	3069.5348493195474	10.840091751828245	4.292325788755521	3100.8637680699594	913.102886962451	203.1557673520732	2988.8816863227457	522.2777834098883	300.63825347463677	2882.928721045855	93.82356571504434	341.5305743845679	2740.8835199809064	13.962604448366367	243.35341100714794	3041.1581810040234	1017.2869791585339	70.24651548996897	2989.87588982507	1085.7737037969168	24.578519324957238	2931.4331404183367	1152.518116164351	-23.540474802630193	2868.1158374103716	1208.6682319340173	-70.2142485516883	2799.815914570443	1269.1521662282712	-118.78144038305642	2736.10042507423	1323.6847401970008	-160.19655591884788	2597.007830760267	1400.6021507223793	-160.7662943138025	2817.5087205079717	1231.902275772913	-114.48408235222256	2791.0875044277427	1166.1173116320756	-131.7646834174319	2838.270669546059	1076.4809104390033	10.3655962258322	2765.913182921065	986.9798779138914	103.43361737310069	2765.193210712462	995.7801540425987	106.12576816713614	2764.729305282471	993.9273121020422	116.75043500738506	2764.162824035517	989.709055189615	125.8857807651143	2763.4823326044493	983.6877016139024	134.98690961962356	2764.1277203869254	986.2928814432686	112.45671045923781	2761.045512098462	973.5114968806719	133.29475178885332	2759.5781184190128	963.5422621114324	148.545524514441	2759.475186450949	960.131371821364	155.4070055742151	2759.9359213705807	959.1880823137195	159.3190313550714	2763.605141416312	978.7231480679596	116.48958664594063	2760.3159922244404	962.162405222503	138.99555324691528	2758.656662237419	950.3252926367895	156.10265327949958	2758.504600234672	945.7501398017961	164.60413353715398	2758.995171472415	944.4943709786788	168.99317962074198	2763.305508033571	973.6905228256263	118.81494301618739	2760.07109141293	954.448589083232	141.02643280063072	2758.570708975187	943.1776564032504	156.37725363762985	2758.3952949338504	938.2581139793575	164.81137280490833	2758.8429413217686	936.8373841714119	169.04895706190194	2763.121022336286	968.3452911054931	120.82922106494287	2760.0092207416897	947.3611199090147	142.47645354269994	2758.737523579023	936.9319385144017	155.35867035731349	2758.5755960046854	932.6645232729912	161.79588212565818	2758.9525843980864	931.0151713050494	165.71390275737284	2827.1463801403816	1265.9400636840662	-89.68864050449469	2852.7044800327667	1311.540215024092	-42.56157069321969	2872.3905145101094	1142.3988192660004	42.74775425016797	2834.056233597355	1017.8869012173793	100.82597481971536	2827.318137138209	1028.72591888174	93.84861697360216	2822.5811067844415	1026.003329147607	90.92369437926538	2819.856943063843	1021.0518658033857	91.22500848235774	2818.0775638047144	1014.3101873114424	93.47649264373418	2828.6382545913384	1019.2582106907631	101.88732805721227	2823.01722031258	1007.8951904518294	110.89590371189958	2819.7562508496485	997.3660366724788	115.57877182737985	2818.0541167720053	992.7517279163679	115.01569803980482	2816.864622940413	990.2354323949891	112.20604945797291	2830.4279225267983	1011.2187701378805	107.85798504930789	2825.9131833256624	995.7878303551903	119.87466323993044	2822.610007309474	983.2712268399847	125.74121440154566	2820.6789028765397	977.2113155826861	125.42495652695692	2819.4369139888868	974.218406641558	122.52718813386545	2831.8317938164337	1005.8332561493662	111.87955430054745	2828.992735962543	987.3418667780314	126.23699781521402	2826.381664663255	975.4067093543629	132.10433631396296	2824.6612784177573	969.0167792869815	132.19970256074672	2823.560936975197	965.9445873725683	129.66482153123255	2833.6439459956778	999.9208133487313	115.99223019333458	2832.1420333265028	979.326666608623	131.81050035757798	2830.481683838067	968.2499355126034	137.62236158295508	2829.4350747481276	962.8540582282352	138.23057176467876	2828.5801994657973	959.7095768097361	136.2950734374937
231	1.917	3081.203	893.81699	129.612	3071.4908952881888	847.306882928824	69.62046782858327	3007.9579980065037	438.4790978841736	38.50138186779128	3124.485034306411	122.98589930638529	-133.95036840588432	3070.8254470511556	10.674858089201388	2.530708170606633	3101.6177165972804	913.5775622967936	203.49836165050004	2989.5746614488594	522.6863791309305	300.6622885882631	2883.7533582029982	93.88013238947084	340.4807533841386	2742.0300587997294	13.447690028265612	242.2467588168124	3041.4256726617277	1017.2665157153335	70.07993664907596	2990.1686010279827	1085.7350759014373	24.36405545504604	2931.724161363784	1152.456228167666	-23.778326807306556	2868.3634853672893	1208.5736171633164	-70.42474658862145	2800.0309546329986	1269.0221887629582	-118.97905942932334	2736.4227898003996	1323.6472602781714	-160.44088348466136	2597.287495090758	1400.4826240862942	-160.9487881589901	2817.468846278015	1231.467669989749	-114.6216621241308	2789.9138185508705	1164.4398408141612	-131.6664189401765	2835.848468613099	1075.9142148586918	13.254101914220488	2760.1000754462093	986.4419373887747	108.7076430415874	2759.510923318519	995.2047105472776	111.59399814822244	2759.084616568182	993.1525115308643	122.70107446374085	2758.4836751122666	988.8147057777381	132.20617633831236	2757.722575972482	982.7101874190139	141.64447435323592	2758.2302069758425	985.8059629361932	118.05009317031288	2754.836669724013	973.0751801809613	139.56160424779432	2753.2051614881348	963.0191897312039	155.35504507946345	2753.1025978741986	959.4677792853951	162.51472057593105	2753.632707001145	958.3497771112026	166.64713533127127	2757.5560191029076	978.28112218497	122.15499411298157	2753.8811879572177	961.7940524776258	145.35677939657597	2752.0238492935728	949.8678797168437	163.06344925269744	2751.8631474598747	945.1258839082647	171.9282473416612	2752.425212286214	943.6802545458914	176.56016907803914	2757.156227107567	973.2802971863046	124.51365428843769	2753.486316247758	954.1360152970942	147.37648626681445	2751.794618061487	942.7930568692074	163.2563772580227	2751.6009263524984	937.7155539046934	172.0443885574811	2752.111080076404	936.1177184284337	176.51196799410246	2756.873136283003	967.9594218832839	126.54992716406228	2753.297683391491	947.0844602997277	148.80701572698172	2751.8454771549204	936.605903357018	162.12016706505804	2751.6570044030486	932.2272881760304	168.81903095466615	2752.081761646459	930.4233586884557	172.94281475578083	2827.636177401076	1266.152460139771	-89.93852617516671	2854.1969720072557	1313.0993137701284	-42.50457625433361	2871.9814293429	1142.5791546949413	44.71732242981902	2831.691203476657	1017.00106265963	104.46725821590525	2824.781051341036	1027.7946415067802	97.38978419288641	2819.740236007032	1025.0631979548268	94.37450922399013	2816.7937613735603	1020.1243982403196	94.66478196582997	2814.819850907697	1013.4093846176447	96.95144516794817	2826.0533216466424	1018.3924484150946	105.62109298826381	2820.028177024274	1007.1204979453278	114.89498308392928	2816.4512830270974	996.6430580309814	119.67806050066733	2814.5738105077075	992.0320949296449	119.06809915418718	2813.2534011153816	989.4991375240392	116.14598979676481	2827.8261522717526	1010.400498534184	111.71961048138532	2822.908157356312	995.084076542004	124.06425253891683	2819.2592910414382	982.6298598527462	130.056056504661	2817.1161889025498	976.576843367304	129.69086120983806	2815.7307321678754	973.5670920624905	126.67375183636031	2829.2286411080945	1005.0464724491599	115.82599228201929	2826.027575802631	986.6858072010104	130.55463431234227	2823.1148568842677	974.8109324050155	136.54686905573743	2821.189800312493	968.4307869941941	136.60338409626556	2819.9544768271317	965.3442444052491	133.96024718034045	2831.0493187101597	999.165638359641	120.01889161862988	2829.221177725102	978.7117772644672	136.23135746570244	2827.3203239435707	967.6919569446492	142.16613808216255	2826.1249316698313	962.3073965262591	142.7570890619954	2825.1507754152344	959.152609854901	140.73207032668915
232	1.925	3081.203	893.81699	129.612	3070.606349523261	846.8835645665997	69.36385951167257	3007.6915097112023	437.9769921296962	37.93645315971181	3124.960594319756	122.93885500203275	-135.74825904376144	3071.8645835277803	10.297255053894572	0.7278200496019844	3102.4780400617346	913.9968067368083	203.76018463518963	2990.4136108937428	523.0457186270522	300.6832693321814	2884.6996824382877	93.89671206600676	339.4234161051003	2743.1970358978997	12.964671081814338	241.2204984690892	3041.63888714262	1017.2786893604084	69.9935136591649	2990.3658575104137	1085.7575733818917	24.3134528373695	2931.8777423836787	1152.4868586019866	-23.75961851127352	2868.436136288322	1208.605954914618	-70.28140075355802	2800.0328638412475	1269.0506184269345	-118.72670373875579	2736.526336691726	1323.8227765764116	-160.14502010040795	2597.3469102469858	1400.5774561129108	-160.68033630218045	2817.186243837217	1231.2035414508475	-114.26430159760675	2788.5001453089208	1162.9493414798117	-131.02046726319605	2834.014888622074	1076.0511308092987	16.256685436653537	2755.0112613123742	986.2560208789318	114.0760318726135	2755.054955479891	995.344110784774	116.99962555470108	2754.9310424989753	993.2188481870312	128.48213520355088	2754.421847454741	988.8538671354175	138.31913183578962	2753.6355689593224	982.7469765282566	148.0943771086905	2753.4090439791603	986.1154976834325	123.7029717329531	2749.971845847954	973.990329217352	145.9481726403533	2748.2952520630947	964.0604018374653	162.29858886715252	2748.256785018692	960.3589235163352	169.71568798973314	2748.902085252492	958.9626185309455	174.00124430508927	2752.412449616103	978.6200201384162	127.97613487383248	2748.5206483174593	962.7396148294829	151.98453950253315	2746.5716961046764	950.952544069859	170.31885959960795	2746.4679671740028	946.0302346175615	179.50377056368797	2747.146179205409	944.2804493868691	184.3078949197632	2751.785356446611	973.6277601962289	130.43508588444922	2747.7218213561027	955.0441879230069	154.10826461337476	2745.907264643163	943.823054053204	170.55426484806404	2745.7456913692713	938.5719323865701	179.66116558191544	2746.354228452411	936.6882617353405	184.2954511484944	2751.246565003966	968.2734146608308	132.5646265544319	2747.150295202892	947.9032803597537	155.62315188019258	2745.5343367142505	937.5207159691548	169.41580178440108	2745.33766686984	933.0147097395741	176.35992926770712	2745.831376830049	930.957141904408	180.6386759852307	2827.9724884722027	1266.49229822913	-89.8475927339046	2855.4391239269844	1314.8499747202595	-42.126096488617186	2871.342797098467	1143.040470995457	47.08495424196769	2828.9637292674493	1016.3519549896318	108.62189550551204	2821.8938293943947	1027.0108995025892	101.52842556041077	2816.5651268070897	1024.243496523178	98.41115877318572	2813.4078828314377	1019.2946295685564	98.6635095601049	2811.24946595417	1012.5840337360679	100.94688171728461	2823.121095740394	1017.6428403368961	109.89735936296468	2816.716629532971	1006.3040096343188	119.39150648885827	2812.840922614631	995.8184672822904	124.21881170850685	2810.796365127788	991.216558086626	123.5324326376549	2809.350265714714	988.7005989841804	120.47697643195966	2824.877499563406	1009.6957760851502	116.07307145184556	2819.5806488049834	994.3383891895432	128.67433124327107	2815.6047374961813	981.8815186783571	134.72373208774528	2813.259583740059	975.8423944534978	134.2708192169998	2811.736370630603	972.8526856703736	131.1099831545907	2826.278272661827	1004.3748629282256	120.22973826278499	2822.736805823391	986.0053345313909	135.2360126466635	2819.53862497988	974.1345401892276	141.28757084955305	2817.418457445503	967.7711887107424	141.26432111512852	2816.053505007927	964.7050987810278	138.4883382826125	2828.1063001423713	998.5365399823087	124.46343997794293	2825.971061536328	978.0997082956972	140.96036270287385	2823.8424674542666	967.0931675711495	146.95565839395934	2822.50517027932	961.7257011608583	147.49472036933045	2821.41641983802	958.5918217340278	145.35564394557562
